<svg xmlns="http://www.w3.org/2000/svg" viewBox="0 0 512 512" style="enable-background:new 0 0 512 512" xml:space="preserve"><circle style="fill:#5066ce" cx="256" cy="256" r="256"/><path style="fill:#57409b" d="M163.486 249.223h144.793L242.403 108.19a52.426 52.426 0 0 0-47.499-30.239H116.86c-15.548 0-25.83 16.152-19.25 30.239l65.876 141.033z"/><path style="fill:#6052a3" d="M196.86 249.223h-33.375L97.61 108.19c-6.58-14.087 3.703-30.239 19.25-30.239l80 171.272zM308.279 249.223h-33.375l-80-171.272a52.424 52.424 0 0 1 47.499 30.239l65.876 141.033z"/><g><path style="fill:#6052a3" d="M348.517 249.223H203.724L269.6 108.19a52.426 52.426 0 0 1 47.499-30.239h78.044c15.548 0 25.83 16.152 19.25 30.239l-65.876 141.033z"/><path style="fill:#7063ce" d="M315.143 249.223h33.375l65.876-141.033c6.58-14.087-3.703-30.239-19.25-30.239l-80.001 171.272zM203.724 249.223h33.375l80-171.272A52.424 52.424 0 0 0 269.6 108.19l-65.876 141.033z"/></g><g><circle style="fill:#f9c744" cx="256" cy="332.121" r="124.228"/><path style="fill:#fad98f" d="M256 456.349c68.609 0 124.228-55.619 124.228-124.228S324.609 207.894 256 207.894v248.455z"/><path style="fill:#ea792e" d="M256 437.823c-58.284 0-105.702-47.417-105.702-105.702S197.716 226.419 256 226.419s105.702 47.418 105.702 105.702S314.284 437.823 256 437.823zm0-204.404c-54.424 0-98.702 44.278-98.702 98.702s44.278 98.702 98.702 98.702 98.702-44.277 98.702-98.702-44.278-98.702-98.702-98.702z"/><path style="fill:#f39e22" d="M256 437.823v-7c54.424 0 98.702-44.277 98.702-98.702S310.424 233.419 256 233.419v-7c58.284 0 105.702 47.418 105.702 105.702S314.284 437.823 256 437.823z"/><g><circle style="fill:#ea792e" cx="256" cy="332.121" r="82.898"/><path style="fill:#f39e22" d="M256 415.019c45.783 0 82.898-37.115 82.898-82.898S301.783 249.223 256 249.223v165.796z"/></g><g><path style="fill:#f4e6f4" d="M288.77 338.51c-3.8-5.04-9.27-8.47-16.41-10.29 21.299-7.265 25.912-37.414 8.76-51.17-11.829-10.154-33.279-10.712-48.45-5.18-6.63 2.32-12.33 5.47-17.09 9.43-2.623 2.483-3.893 4.393-3.91 7.99-.13 4.244 2.826 9.029 7.14 9.01 2.878-.046 3.951-1.045 6.8-2.55 10.945-7.439 19.972-10.756 30.39-9.61 9.084 1.187 14.764 7.16 14.66 16.75-.063 17.226-16.242 17.883-30.09 17.51-10.855-.319-10.797 17.579 0 17.34h9.69c6.035-.109 13.712 1.168 17.6 4.34 7.676 5.15 7.445 21.717.25 27.03-2.85 2.36-6.89 3.79-12.11 4.29-12.241 1.306-21.996-2.748-32.26-9.65-2.851-1.488-3.928-2.495-6.8-2.55-4.307-.012-7.264 4.77-7.14 9.01 0 3.06 1.3 5.73 3.91 7.99 10.057 8.656 24.947 12.974 38.59 12.92 21.777.453 42.453-10.9 42.16-33.83 0-7.48-1.9-13.74-5.69-18.78z"/><path style="fill:#fff" d="M294.46 357.29c.091 21.464-17.488 32.951-38.46 33.73V373.4c11.096-1.034 17.553-6.413 17.55-17.98 0-11.359-6.762-16.237-17.55-17.39v-18.38c9.78-1.91 14.66-7.49 14.66-16.76.104-9.589-5.576-15.564-14.66-16.75v-17.69c19.549.617 35.689 11.79 35.57 31.72-.147 12.866-7.11 23.587-19.21 28.05 14.355 3.58 22.156 14.331 22.1 29.07z"/></g></g><g><path style="fill:#fff" d="M407.484 279.945h-10.57c-7.352 0-13.312-5.96-13.312-13.312v-10.57a5.78 5.78 0 1 0-11.562 0v10.57c0 7.352-5.96 13.312-13.312 13.312h-10.57a5.78 5.78 0 1 0 0 11.562h10.57c7.352 0 13.312 5.96 13.312 13.312v10.57a5.78 5.78 0 1 0 11.562 0v-10.57c0-7.352 5.96-13.312 13.312-13.312h10.57a5.78 5.78 0 1 0 0-11.562z"/><path style="fill:#f0dae2" d="M442.58 335.489h-8.125c-5.652 0-10.233-4.582-10.233-10.233v-8.125a4.444 4.444 0 0 0-8.888 0v8.125c0 5.652-4.582 10.233-10.233 10.233h-8.125a4.444 4.444 0 0 0 0 8.888h8.125c5.652 0 10.233 4.582 10.233 10.233v8.125a4.444 4.444 0 0 0 8.888 0v-8.125c0-5.652 4.582-10.233 10.233-10.233h8.125a4.444 4.444 0 0 0 0-8.888zM108.033 220.638h-10.57c-7.352 0-13.312-5.96-13.312-13.312v-10.57a5.78 5.78 0 1 0-11.562 0v10.57c0 7.352-5.96 13.312-13.312 13.312h-10.57a5.78 5.78 0 1 0 0 11.562h10.57c7.352 0 13.312 5.96 13.312 13.312v10.57a5.78 5.78 0 1 0 11.562 0v-10.57c0-7.352 5.96-13.312 13.312-13.312h10.57a5.782 5.782 0 0 0 0-11.562z"/></g></svg>