<svg xmlns="http://www.w3.org/2000/svg" viewBox="0 0 512 512" style="enable-background:new 0 0 512 512" xml:space="preserve"><circle style="fill:#e9465e" cx="256" cy="256" r="256"/><path style="fill:#decee5" d="M111.725 107.172h288.55v33.913h-288.55z"/><path style="fill:#c2aacf" d="M111.725 128.341h288.55v12.744h-288.55z"/><path style="fill:#decee5" d="M256 128.341h144.275v12.744H256z"/><path style="fill:#f4e6f4" d="M256 107.172h144.275v21.169H256z"/><path style="fill:#fff" d="M358.182 120.117h-70.965a6.473 6.473 0 1 1 0-12.946h70.965a6.473 6.473 0 1 1 0 12.946z"/><g><path style="fill:#f39e22" d="M129.4 96.42v55.41c0 6.18-5 11.18-11.17 11.18h-13.01c-6.17 0-11.17-5-11.17-11.18V96.42c0-6.17 5-11.17 11.17-11.17h13.01c6.17 0 11.17 5 11.17 11.17z"/><path style="fill:#f9c744" d="M129.4 96.42v33.49c0 6.17-5 11.17-11.17 11.17h-13.01c-6.17 0-11.17-5-11.17-11.17V96.42c0-6.17 5-11.17 11.17-11.17h13.01c6.17 0 11.17 5 11.17 11.17z"/><path style="fill:#fad98f" d="M119.807 128.341a9.593 9.593 0 0 1-9.593-9.593v-15.586a9.593 9.593 0 0 1 19.186 0v15.586a9.593 9.593 0 0 1-9.593 9.593z"/></g><g><path style="fill:#f9c744" d="M417.95 96.42v55.41c0 6.18-5 11.18-11.17 11.18h-13.01c-6.17 0-11.17-5-11.17-11.18V96.42c0-6.17 5-11.17 11.17-11.17h13.01c6.17 0 11.17 5 11.17 11.17z"/><path style="fill:#fad98f" d="M417.95 96.42v33.49c0 6.17-5 11.17-11.17 11.17h-13.01c-6.17 0-11.17-5-11.17-11.17V96.42c0-6.17 5-11.17 11.17-11.17h13.01c6.17 0 11.17 5 11.17 11.17z"/><path style="fill:#faefdc" d="M408.357 128.341a9.593 9.593 0 0 1-9.593-9.593v-15.586a9.593 9.593 0 0 1 19.186 0v15.586a9.593 9.593 0 0 1-9.593 9.593z"/></g><g><path style="fill:#f9c744" d="M382.6 141.08v277.56c0 10.75-12.71 16.45-20.73 9.29l-97.59-87.06c-2.36-2.11-5.32-3.16-8.28-3.16s-5.92 1.05-8.28 3.16l-97.59 87.06c-8.02 7.16-20.73 1.46-20.73-9.29V141.08h253.2z"/><path style="fill:#fad98f" d="M382.6 141.08v277.56c0 10.75-12.71 16.45-20.73 9.29l-97.59-87.06a12.388 12.388 0 0 0-8.28-3.16V141.08h126.6z"/><path style="fill:#c0405c" d="M359.57 141.08v232.16c0 8.99-10.4 13.75-16.96 7.76l-79.83-72.82c-1.93-1.76-4.36-2.64-6.78-2.64s-4.85.88-6.78 2.64L169.39 381c-6.56 5.99-16.96 1.23-16.96-7.76V141.08h207.14z"/><path style="fill:#e9465e" d="M359.57 141.08v232.16c0 8.99-10.4 13.75-16.96 7.76l-79.83-72.82a10.045 10.045 0 0 0-6.78-2.64V141.08h103.57z"/><g><path style="fill:#f4e6f4" d="m315.51 216.323-26.42 19.19a11.287 11.287 0 0 0-4.1 12.61l10.09 31.06c1.18 3.61-2.96 6.62-6.03 4.39l-26.42-19.2c-1.97-1.44-4.3-2.15-6.63-2.15s-4.66.71-6.63 2.15l-26.42 19.2c-3.07 2.23-7.21-.78-6.03-4.39l10.09-31.06c1.51-4.65-.15-9.73-4.1-12.61l-26.42-19.19c-3.07-2.24-1.49-7.1 2.31-7.1h32.66c4.88 0 9.21-3.14 10.72-7.79l10.09-31.06c.59-1.8 2.16-2.71 3.73-2.71s3.14.91 3.73 2.71l10.09 31.06a11.27 11.27 0 0 0 10.72 7.79h32.66c3.8 0 5.38 4.86 2.31 7.1z"/><path style="fill:#fff" d="m315.51 216.323-26.42 19.19a11.287 11.287 0 0 0-4.1 12.61l10.09 31.06c1.18 3.61-2.96 6.62-6.03 4.39l-26.42-19.2c-1.97-1.44-4.3-2.15-6.63-2.15v-94.56c1.57 0 3.14.91 3.73 2.71l10.09 31.06a11.27 11.27 0 0 0 10.72 7.79h32.66c3.8 0 5.38 4.86 2.31 7.1z"/></g></g></svg>