<svg xmlns="http://www.w3.org/2000/svg" viewBox="0 0 512 512" style="enable-background:new 0 0 512 512" xml:space="preserve"><circle style="fill:#00a585" cx="256" cy="256" r="256"/><path style="fill:#f39e22" d="M150.73 133.59v280.05c0 9.91-8.03 17.94-17.94 17.94-9.91 0-17.94-8.03-17.94-17.94V133.59c0-9.91 8.03-17.94 17.94-17.94 4.95 0 9.44 2.01 12.69 5.25a17.93 17.93 0 0 1 5.25 12.69z"/><path style="fill:#f9c744" d="M150.73 133.59v280.05c0 9.91-8.03 17.94-17.94 17.94V115.65c4.95 0 9.44 2.01 12.69 5.25a17.93 17.93 0 0 1 5.25 12.69z"/><path style="fill:#fad98f" d="M141.76 307.923a8.97 8.97 0 0 1-8.97-8.97V174.148a8.97 8.97 0 1 1 17.94 0v124.806a8.97 8.97 0 0 1-8.97 8.969z"/><g><path style="fill:#f9c744" d="M173.26 115.65c0 4.95-2.01 9.44-5.25 12.69a17.913 17.913 0 0 1-12.69 5.25h-45.06c-9.91 0-17.94-8.03-17.94-17.94 0-4.95 2.01-9.44 5.25-12.69 3.25-3.24 7.73-5.25 12.69-5.25h45.06c9.91 0 17.94 8.03 17.94 17.94z"/><path style="fill:#fad98f" d="M173.26 115.65c0 4.95-2.01 9.44-5.25 12.69a17.913 17.913 0 0 1-12.69 5.25h-22.53V97.71h22.53c9.91 0 17.94 8.03 17.94 17.94z"/></g><g><path style="fill:#f39e22" d="M158.587 82.383c0 14.244-11.553 25.797-25.797 25.797-14.245 0-25.797-11.553-25.797-25.797 0-14.245 11.553-25.798 25.797-25.798s25.797 11.553 25.797 25.798z"/><path style="fill:#f9c744" d="M158.587 82.383c0 14.244-11.553 25.797-25.797 25.797V56.585c14.244 0 25.797 11.553 25.797 25.798z"/><circle style="fill:#fad98f" cx="143.94" cy="74.668" r="9.749"/></g><g><path style="fill:#e9465e" d="M150.73 346.012c120.321 0 150.871 9.46 150.871 9.46v-193.42c0-11.396-8.443-21.033-19.744-22.502-20.725-2.694-60.43-5.96-131.127-5.96v212.422z"/><path style="fill:#f39e22" d="M150.73 327.093v18.919c66.67.66 109.47 1.129 150.871 9.46v-19.53c-12.741-2.677-48.627-8.121-131.871-8.85h-19zM281.857 139.55c-5.544-.713-10.122-1.213-16.451-1.81-13.12-1.205-24.678-1.933-38.462-2.586-25.036-1.157-50.745-1.56-76.213-1.564v19.083h19c53.965.48 86.747 3.659 105.916 5.25 25.895 2.15 25.955 14.333 25.955 14.333v-10.204c-.001-11.396-8.445-21.033-19.745-22.502z"/><g><path style="fill:#c0405c" d="M439.438 171.159c-126.709 0-137.818-9.46-137.818-9.46v193.622c0 12.201 11.575 22.524 27.126 24.201 19.676 2.122 53.344 4.059 110.693 4.059V171.159z"/><path style="fill:#ea792e" d="M351.327 168.965c-6.667-.412-14.493-1.025-20.565-1.653-25.627-2.619-29.142-5.612-29.142-5.612v20.557c16.233 3.691 47.958 7.106 113.369 7.782v174.413c-43.644-.486-69.083-1.434-82.883-3.749-26.879-4.509-30.486-14.76-30.486-14.76.304 5.007-.921 11.441 1.17 15.999 3.31 9.147 13.32 16.218 25.956 17.581 19.676 2.122 53.344 4.06 110.693 4.06V171.159c-39.598 0-67.905-.924-88.112-2.194z"/></g><g><path style="fill:#f9c744" d="M218.032 315.599a1.73 1.73 0 0 0 2.027-2.473L193.27 263.08c-3.723-6.956-4.515-14.946-2.229-22.498l19.568-64.645a1.73 1.73 0 1 0-3.313-1.003l-19.568 64.645c-2.554 8.436-1.669 17.362 2.491 25.134l26.789 50.046c.225.422.6.712 1.024.84z"/><path style="fill:#f39e22" d="m201.506 276.56 1.681.509c3.789 1.147 7.61-1.69 7.608-5.649l-.008-13.89c-.001-2.575-3.34-3.585-4.769-1.444l-7.71 11.554c-2.197 3.293-.591 7.773 3.198 8.92zM190.113 226.223l1.312-.702c2.958-1.584 3.548-5.574 1.174-7.945l-8.329-8.32c-1.544-1.542-4.151-.147-3.723 1.993l2.304 11.545c.656 3.29 4.304 5.013 7.262 3.429zM198.661 198.189l1.164-.623c2.625-1.405 3.148-4.945 1.041-7.049l-7.389-7.381c-1.37-1.368-3.682-.13-3.303 1.768l2.044 10.242c.582 2.919 3.818 4.447 6.443 3.043zM206.379 181.658l1.264.383c2.849.862 5.722-1.271 5.721-4.248l-.006-10.444c-.001-1.936-2.512-2.696-3.586-1.085l-5.797 8.688c-1.653 2.475-.445 5.844 2.404 6.706zM200.055 212.96l.702 1.312c1.584 2.958 5.574 3.548 7.945 1.174l8.32-8.329c1.542-1.544.147-4.151-1.993-3.723l-11.545 2.304c-3.29.657-5.013 4.304-3.429 7.262zM191.608 244.008l.994 1.152c2.241 2.596 6.353 2.291 8.187-.607l6.434-10.169c1.193-1.885-.782-4.172-2.821-3.268l-10.999 4.881c-3.134 1.391-4.036 5.415-1.795 8.011zM204.653 296.025l.509-1.681c1.147-3.789-1.69-7.61-5.649-7.608l-13.89.008c-2.575.001-3.585 3.34-1.444 4.769l11.554 7.71c3.293 2.197 7.773.591 8.92-3.198zM186.157 262.093l.97-1.318c2.186-2.971.883-7.209-2.595-8.439l-12.201-4.314c-2.262-.8-4.188 1.818-2.751 3.739l7.748 10.365c2.209 2.955 6.643 2.938 8.829-.033z"/><g><path style="fill:#f9c744" d="M281.543 319.599a1.73 1.73 0 0 0 2.027-2.473l-26.789-50.046c-3.723-6.956-4.515-14.946-2.229-22.498l19.567-64.645a1.73 1.73 0 1 0-3.313-1.003l-19.567 64.645c-2.554 8.436-1.669 17.362 2.491 25.134l26.789 50.046c.225.422.6.712 1.024.84z"/><path style="fill:#f39e22" d="m265.017 280.56 1.681.509c3.789 1.147 7.61-1.69 7.608-5.649l-.008-13.89c-.001-2.575-3.34-3.585-4.769-1.444l-7.71 11.554c-2.197 3.293-.591 7.773 3.198 8.92zM253.624 230.223l1.312-.702c2.958-1.584 3.548-5.574 1.174-7.945l-8.329-8.32c-1.544-1.542-4.151-.147-3.723 1.993l2.304 11.545c.656 3.29 4.304 5.013 7.262 3.429zM262.172 202.189l1.164-.623c2.625-1.405 3.148-4.945 1.041-7.049l-7.389-7.381c-1.37-1.368-3.682-.13-3.303 1.768l2.044 10.242c.582 2.919 3.818 4.447 6.443 3.043zM269.89 185.658l1.264.383c2.849.862 5.722-1.271 5.721-4.248l-.006-10.444c-.001-1.936-2.512-2.696-3.586-1.085l-5.797 8.688c-1.653 2.475-.445 5.844 2.404 6.706zM263.566 216.96l.702 1.312c1.584 2.958 5.574 3.548 7.945 1.174l8.32-8.329c1.542-1.544.147-4.151-1.993-3.723l-11.545 2.304c-3.29.657-5.013 4.304-3.429 7.262zM255.119 248.008l.994 1.152c2.241 2.596 6.353 2.291 8.187-.607l6.434-10.169c1.193-1.885-.782-4.172-2.821-3.268l-10.999 4.881c-3.134 1.391-4.036 5.415-1.795 8.011zM268.164 300.025l.509-1.681c1.147-3.789-1.69-7.61-5.649-7.608l-13.89.008c-2.575.001-3.585 3.34-1.444 4.769l11.554 7.71c3.293 2.197 7.773.591 8.92-3.198zM249.669 266.093l.97-1.318c2.186-2.971.883-7.209-2.595-8.439l-12.201-4.314c-2.262-.8-4.188 1.818-2.751 3.739l7.748 10.365c2.208 2.955 6.642 2.938 8.829-.033z"/></g><g><path style="fill:#f39e22" d="M361.354 211.694a1.497 1.497 0 0 0-1.753 2.14l23.177 43.298c3.221 6.018 3.906 12.931 1.929 19.464l-16.929 55.928a1.498 1.498 0 0 0 2.866.868l16.929-55.928c2.209-7.299 1.444-15.021-2.155-21.745L362.24 212.42a1.492 1.492 0 0 0-.886-.726z"/><path style="fill:#ea792e" d="m375.652 245.469-1.454-.44c-3.278-.992-6.584 1.462-6.582 4.888l.007 12.017c.001 2.227 2.89 3.102 4.126 1.249l6.67-9.996c1.9-2.849.511-6.725-2.767-7.718zM385.509 289.019l-1.135.608c-2.559 1.37-3.07 4.822-1.016 6.874l7.206 7.198c1.336 1.334 3.591.127 3.221-1.724l-1.993-9.988c-.568-2.847-3.724-4.338-6.283-2.968zM378.113 313.274l-1.007.539c-2.271 1.215-2.723 4.278-.901 6.098l6.393 6.386c1.185 1.184 3.186.113 2.858-1.53l-1.768-8.861c-.504-2.525-3.304-3.848-5.575-2.632zM371.436 327.575l-1.093-.331c-2.465-.746-4.951 1.1-4.949 3.675l.005 9.036c.001 1.675 2.173 2.332 3.103.939l5.015-7.516c1.429-2.142.384-5.057-2.081-5.803zM376.907 300.494l-.608-1.135c-1.37-2.559-4.822-3.07-6.874-1.016l-7.198 7.206c-1.334 1.336-.127 3.591 1.724 3.221l9.988-1.993c2.848-.568 4.338-3.724 2.968-6.283zM384.215 273.632l-.86-.996c-1.939-2.246-5.497-1.982-7.083.525l-5.567 8.798c-1.032 1.631.677 3.61 2.441 2.827l9.516-4.223c2.712-1.204 3.492-4.684 1.553-6.931zM372.929 228.629l-.44 1.454c-.992 3.278 1.462 6.584 4.888 6.582l12.017-.007c2.227-.001 3.102-2.89 1.249-4.126l-9.996-6.67c-2.849-1.901-6.725-.511-7.718 2.767zM388.931 257.986l-.839 1.14c-1.891 2.57-.764 6.237 2.245 7.301l10.556 3.732c1.957.692 3.623-1.573 2.38-3.235l-6.704-8.967c-1.911-2.556-5.747-2.542-7.638.029z"/></g><g><path style="fill:#f39e22" d="M317.076 206.694a1.497 1.497 0 0 0-1.753 2.14l23.177 43.298c3.221 6.018 3.906 12.931 1.929 19.464L323.5 327.524a1.498 1.498 0 0 0 2.866.868l16.929-55.928c2.209-7.299 1.444-15.021-2.155-21.745l-23.177-43.298a1.492 1.492 0 0 0-.887-.727z"/><path style="fill:#ea792e" d="m331.374 240.469-1.454-.44c-3.278-.992-6.584 1.462-6.582 4.888l.007 12.017c.001 2.227 2.89 3.102 4.126 1.249l6.67-9.996c1.901-2.849.511-6.725-2.767-7.718zM341.231 284.019l-1.135.608c-2.559 1.37-3.07 4.822-1.016 6.874l7.206 7.198c1.336 1.334 3.591.127 3.221-1.724l-1.993-9.988c-.568-2.847-3.724-4.338-6.283-2.968zM333.835 308.274l-1.007.539c-2.271 1.215-2.723 4.278-.901 6.098l6.393 6.386c1.185 1.184 3.186.113 2.858-1.53l-1.768-8.861c-.504-2.525-3.304-3.848-5.575-2.632zM327.158 322.575l-1.093-.331c-2.465-.746-4.951 1.1-4.949 3.675l.005 9.036c.001 1.675 2.173 2.332 3.103.939l5.015-7.516c1.429-2.142.384-5.057-2.081-5.803zM332.629 295.494l-.608-1.135c-1.37-2.559-4.822-3.07-6.874-1.016l-7.198 7.206c-1.334 1.336-.127 3.591 1.724 3.221l9.988-1.993c2.848-.568 4.339-3.724 2.968-6.283zM339.937 268.632l-.86-.996c-1.939-2.246-5.497-1.982-7.083.525l-5.567 8.798c-1.032 1.631.677 3.61 2.441 2.827l9.516-4.223c2.712-1.204 3.492-4.684 1.553-6.931zM328.651 223.629l-.44 1.454c-.992 3.278 1.462 6.584 4.888 6.582l12.017-.007c2.227-.001 3.102-2.89 1.249-4.126l-9.996-6.67c-2.849-1.901-6.725-.511-7.718 2.767zM344.653 252.986l-.839 1.14c-1.891 2.57-.764 6.237 2.245 7.301l10.556 3.732c1.957.692 3.623-1.573 2.38-3.235l-6.704-8.967c-1.91-2.556-5.747-2.542-7.638.029z"/></g></g></g><g><path style="fill:#fff" d="M404.742 138.448h-10.57c-7.352 0-13.312-5.96-13.312-13.312v-10.57a5.78 5.78 0 1 0-11.562 0v10.57c0 7.352-5.96 13.312-13.312 13.312h-10.57a5.78 5.78 0 1 0 0 11.562h10.57c7.352 0 13.312 5.96 13.312 13.312v10.57a5.78 5.78 0 1 0 11.562 0v-10.57c0-7.352 5.96-13.312 13.312-13.312h10.57a5.78 5.78 0 1 0 0-11.562z"/><path style="fill:#cde6f6" d="M324.422 75.099h-8.125c-5.652 0-10.233-4.582-10.233-10.233v-8.125a4.444 4.444 0 0 0-8.888 0v8.125c0 5.652-4.582 10.233-10.233 10.233h-8.125a4.444 4.444 0 0 0 0 8.888h8.125c5.652 0 10.233 4.582 10.233 10.233v8.125a4.444 4.444 0 0 0 8.888 0V94.22c0-5.652 4.582-10.233 10.233-10.233h8.125a4.444 4.444 0 1 0 0-8.888zM121.983 337.586h-10.57c-7.352 0-13.312-5.96-13.312-13.312v-10.57a5.78 5.78 0 1 0-11.562 0v10.57c0 7.352-5.96 13.312-13.312 13.312h-10.57a5.78 5.78 0 1 0 0 11.562h10.57c7.352 0 13.312 5.96 13.312 13.312v10.57a5.78 5.78 0 1 0 11.562 0v-10.57c0-7.352 5.96-13.312 13.312-13.312h10.57a5.78 5.78 0 1 0 0-11.562z"/></g></svg>