<svg xmlns="http://www.w3.org/2000/svg" viewBox="0 0 512 512" style="enable-background:new 0 0 512 512" xml:space="preserve"><circle style="fill:#6052a3" cx="256" cy="256" r="256"/><path style="fill:#decee5" d="M111.725 107.172h288.55v33.913h-288.55z"/><path style="fill:#c2aacf" d="M111.725 128.341h288.55v12.744h-288.55z"/><path style="fill:#decee5" d="M256 128.341h144.275v12.744H256z"/><path style="fill:#f4e6f4" d="M256 107.172h144.275v21.169H256z"/><path style="fill:#fff" d="M358.182 120.117h-70.965a6.473 6.473 0 1 1 0-12.946h70.965a6.473 6.473 0 1 1 0 12.946z"/><g><path style="fill:#f39e22" d="M129.4 96.42v55.41c0 6.18-5 11.18-11.17 11.18h-13.01c-6.17 0-11.17-5-11.17-11.18V96.42c0-6.17 5-11.17 11.17-11.17h13.01c6.17 0 11.17 5 11.17 11.17z"/><path style="fill:#f9c744" d="M129.4 96.42v33.49c0 6.17-5 11.17-11.17 11.17h-13.01c-6.17 0-11.17-5-11.17-11.17V96.42c0-6.17 5-11.17 11.17-11.17h13.01c6.17 0 11.17 5 11.17 11.17z"/><path style="fill:#fad98f" d="M119.807 128.341a9.593 9.593 0 0 1-9.593-9.593v-15.586a9.593 9.593 0 0 1 19.186 0v15.586a9.593 9.593 0 0 1-9.593 9.593z"/></g><g><path style="fill:#f9c744" d="M417.95 96.42v55.41c0 6.18-5 11.18-11.17 11.18h-13.01c-6.17 0-11.17-5-11.17-11.18V96.42c0-6.17 5-11.17 11.17-11.17h13.01c6.17 0 11.17 5 11.17 11.17z"/><path style="fill:#fad98f" d="M417.95 96.42v33.49c0 6.17-5 11.17-11.17 11.17h-13.01c-6.17 0-11.17-5-11.17-11.17V96.42c0-6.17 5-11.17 11.17-11.17h13.01c6.17 0 11.17 5 11.17 11.17z"/><path style="fill:#faefdc" d="M408.357 128.341a9.593 9.593 0 0 1-9.593-9.593v-15.586a9.593 9.593 0 0 1 19.186 0v15.586a9.593 9.593 0 0 1-9.593 9.593z"/></g><g><path style="fill:#f9c744" d="M382.6 141.08v277.56c0 10.75-12.71 16.45-20.73 9.29l-97.59-87.06c-2.36-2.11-5.32-3.16-8.28-3.16s-5.92 1.05-8.28 3.16l-97.59 87.06c-8.02 7.16-20.73 1.46-20.73-9.29V141.08h253.2z"/><path style="fill:#fad98f" d="M382.6 141.08v277.56c0 10.75-12.71 16.45-20.73 9.29l-97.59-87.06a12.388 12.388 0 0 0-8.28-3.16V141.08h126.6z"/><path style="fill:#57409b" d="M359.57 141.08v232.16c0 8.99-10.4 13.75-16.96 7.76l-79.83-72.82c-1.93-1.76-4.36-2.64-6.78-2.64s-4.85.88-6.78 2.64L169.39 381c-6.56 5.99-16.96 1.23-16.96-7.76V141.08h207.14z"/><path style="fill:#6052a3" d="M359.57 141.08v232.16c0 8.99-10.4 13.75-16.96 7.76l-79.83-72.82a10.045 10.045 0 0 0-6.78-2.64V141.08h103.57z"/><path style="fill:#f4e6f4" d="m233.441 267.741-13.181 9.574a5.631 5.631 0 0 0-2.046 6.291l5.034 15.496c.589 1.801-1.477 3.303-3.008 2.19l-13.181-9.579a5.597 5.597 0 0 0-3.308-1.073 5.59 5.59 0 0 0-3.308 1.073l-13.181 9.579c-1.532 1.113-3.597-.389-3.008-2.19l5.034-15.496a5.631 5.631 0 0 0-2.046-6.291l-13.181-9.574c-1.532-1.118-.743-3.542 1.153-3.542h16.295a5.622 5.622 0 0 0 5.348-3.887l5.034-15.496a1.927 1.927 0 0 1 1.861-1.352c.783 0 1.567.454 1.861 1.352l5.034 15.496a5.623 5.623 0 0 0 5.348 3.887h16.295c1.895 0 2.683 2.424 1.151 3.542z"/><path style="fill:#fff" d="m233.441 267.741-13.181 9.574a5.631 5.631 0 0 0-2.046 6.291l5.034 15.496c.589 1.801-1.477 3.303-3.008 2.19l-13.181-9.579a5.597 5.597 0 0 0-3.308-1.073v-47.178c.783 0 1.567.454 1.861 1.352l5.034 15.496a5.623 5.623 0 0 0 5.348 3.887h16.295c1.896.002 2.684 2.426 1.152 3.544z"/><g><path style="fill:#f4e6f4" d="m337.94 267.741-13.181 9.574a5.631 5.631 0 0 0-2.046 6.291l5.034 15.496c.589 1.801-1.477 3.303-3.008 2.19l-13.181-9.579a5.597 5.597 0 0 0-3.308-1.073 5.59 5.59 0 0 0-3.308 1.073l-13.181 9.579c-1.532 1.113-3.597-.389-3.008-2.19l5.034-15.496a5.631 5.631 0 0 0-2.046-6.291l-13.181-9.574c-1.532-1.118-.743-3.542 1.153-3.542h16.295a5.622 5.622 0 0 0 5.348-3.887l5.034-15.496a1.927 1.927 0 0 1 1.861-1.352c.783 0 1.567.454 1.861 1.352l5.034 15.496a5.623 5.623 0 0 0 5.348 3.887h16.295c1.894 0 2.683 2.424 1.151 3.542z"/><path style="fill:#fff" d="m337.94 267.741-13.181 9.574a5.631 5.631 0 0 0-2.046 6.291l5.034 15.496c.589 1.801-1.477 3.303-3.008 2.19l-13.181-9.579a5.597 5.597 0 0 0-3.308-1.073v-47.178c.783 0 1.567.454 1.861 1.352l5.034 15.496a5.623 5.623 0 0 0 5.348 3.887h16.295c1.895.002 2.684 2.426 1.152 3.544z"/></g><g><path style="fill:#f4e6f4" d="m301.68 193.141-20.28 14.73a8.664 8.664 0 0 0-3.147 9.679l7.745 23.842c.906 2.771-2.272 5.081-4.629 3.37l-20.28-14.738a8.608 8.608 0 0 0-5.089-1.65 8.606 8.606 0 0 0-5.089 1.65l-20.28 14.738c-2.356 1.712-5.534-.599-4.629-3.37l7.745-23.842a8.663 8.663 0 0 0-3.147-9.679l-20.28-14.73c-2.357-1.719-1.144-5.45 1.773-5.45h25.07a8.65 8.65 0 0 0 8.229-5.98l7.745-23.842c.453-1.382 1.658-2.08 2.863-2.08s2.41.698 2.863 2.08l7.745 23.842a8.651 8.651 0 0 0 8.229 5.98h25.07c2.916 0 4.129 3.73 1.773 5.45z"/><path style="fill:#fff" d="m301.68 193.141-20.28 14.73a8.664 8.664 0 0 0-3.147 9.679l7.745 23.842c.906 2.771-2.272 5.081-4.629 3.37l-20.28-14.738a8.608 8.608 0 0 0-5.089-1.65V155.79c1.205 0 2.41.698 2.863 2.08l7.745 23.842a8.651 8.651 0 0 0 8.229 5.98h25.07c2.916-.001 4.129 3.729 1.773 5.449z"/></g></g></svg>